<?xml version="1.0"?>
<svg xmlns="http://www.w3.org/2000/svg" xmlns:xlink="http://www.w3.org/1999/xlink" version="1.1" id="Capa_1" x="0px" y="0px" width="512px" height="512px" viewBox="0 0 910.401 910.4" style="enable-background:new 0 0 910.401 910.4;" xml:space="preserve" class=""><g><g>
	<g>
		<path d="M499.686,898c-11.2-13.5-21.9-30.8-32-51.8c-4.5-9.4-8.7-19.1-12.5-28.7c-4,9.601-8.3,19.4-13.101,29    c-10.199,20.601-20.899,37.601-32,51c14.4,4.5,29.7,6.9,45.601,6.9C471.085,904.4,485.786,902.2,499.686,898z" data-original="#000000" class="active-path" data-old_color="#000000" fill="#E3E9ED"/>
		<path d="M654.486,7.5c-1.5-5-5.8-7.5-10.1-7.5c-4.2,0-8.4,2.5-10,7.4c-14.101,43.3-34.301,110.3-34.301,139.3h-287.3    c0-29-20.1-96.1-34.1-139.3c-1.601-4.9-5.8-7.4-10-7.4c-4.3,0-8.6,2.5-10.1,7.5c-30.1,99.7-149.6,257-179.9,295.9    c-4.8,6.2-7.2,14-6.7,21.9c5.2,70.8,52.9,71.9,52.9,71.9v175.5c0,106.5,130.7,337.7,220.6,337.7c11.1,0,21.8-5.101,31.9-13.601    c0,0,7.699-7.199,9.199-8.8c23.2-25.1,42.4-66.7,54.801-101.3c-35.101-4.8-61.7-27.6-61.7-55.1c0-30.9,33.7-56,75.3-56    c41.6,0,75.3,25.1,75.3,56c0,27.199-26.1,49.899-60.8,55c11.8,34.899,30.5,77.1,54,102.1c1.5,1.5,7.6,7.4,9.3,8.7    c9.9,8.1,20.601,12.899,31.8,12.899c89.801,0.101,218.4-231.1,218.4-337.6V397.2c0,0,49.9-1.2,55.4-72c0.6-7.8-1.7-15.6-6.5-21.8    C801.986,264.5,684.186,107.3,654.486,7.5z M348.985,569.9c-8,24.1-34,37.2-58.1,29.2c-24.101-8-37.2-34-29.2-58.101    c8-24.1,24.899-9.7,49-1.7C334.785,547.2,356.985,545.7,348.985,569.9z M620.085,599.101c-24.1,8-50.1-5.101-58.1-29.2    c-8-24.101,14.2-22.601,38.3-30.601c24.101-8,41-22.399,49,1.7C657.286,565.101,644.186,591.101,620.085,599.101z" data-original="#000000" class="active-path" data-old_color="#000000" fill="#E3E9ED"/>
	</g>
</g></g> </svg>
