<?xml version="1.0" ?><svg height="48px" version="1.1" viewBox="0 0 48 48" width="48px" xmlns="http://www.w3.org/2000/svg" xmlns:xlink="http://www.w3.org/1999/xlink"><title/><desc/><g fill="none" fill-rule="evenodd" id="Page-1" stroke="none" stroke-width="1"><g id="Artboard-Copy" transform="translate(-107.000000, -69.000000)"><path d="M124.833,90.1235 C124.833,90.5345 124.946,91.4355 125.031,92.0515 L126.75,89.9205 L128.09,88.3665 C128.724,87.6755 129.456,87.1885 129.829,87.3195 C130.205,87.4505 130.409,87.8915 130.287,88.3025 L125.222,105.0765 C124.695,106.8195 125.582,108.6855 127.205,109.2435 C127.579,109.3705 127.957,109.4185 128.328,109.3945 L128.43,109.4005 C132.304,109.4005 134.958,106.5505 137.258,103.0975 C137.258,102.6865 137.146,101.7875 137.062,101.1695 L135.341,103.2995 L134.002,104.8535 C133.369,105.5475 132.58,106.0325 132.206,105.9015 C131.859,105.7785 131.657,105.3945 131.726,105.0115 L136.826,88.1575 C137.353,86.4145 136.466,84.5495 134.843,83.9915 C134.467,83.8595 133.68,83.8195 133.662,83.8195 C129.787,83.8195 127.134,86.6705 124.833,90.1235 M132.819,77.8895 C132.819,79.9665 134.389,81.3765 136.326,81.3765 C138.263,81.3765 139.833,79.9665 139.833,77.8895 C139.833,75.8105 138.263,74.4015 136.326,74.4015 C134.389,74.4015 132.819,75.8105 132.819,77.8895" fill="#616161" id="info"/><g id="slices" transform="translate(47.000000, 9.000000)"/></g></g></svg>
